# xmcd CD database file
#
# Track frame offsets:
#	150
#	8983
#	22772
#	35580
#	43847
#	57635
#	65325
#	78975
#	89871
#	98249
#	108051
#	120209
#
# Disc length: 1720 seconds
#
# Revision: 0
# Processed by: cddbd v1.5.2PL0 Copyright (c) Steve Scherf et al.
# Submitted via: CDex 1.51
#
DISCID=9306b60c
DTITLE=Jackie Phelps and Jimmie Riddle - Stars of Hee Haw and The Grand Ole Opry
DYEAR=2004
DGENRE=Country
TTITLE0=Jackie Phelps - Function At The Junction
TTITLE1=Jimmie Riddle - Huntin' Blues
TTITLE2=Jackie Phelps - Sweet Temptation
TTITLE3=Jimmie Riddle - Mockingbird
TTITLE4=Jackie Phelps - Instrumental Medley
TTITLE5=Jimmie Riddle - Fox Chase
TTITLE6=Jackie Phelps - Sitting On Top Of The World
TTITLE7=Jimmie Riddle - Maple On The Hill
TTITLE8=Jackie Phelps - Guitar Rag
TTITLE9=Jimmie Riddle - Under The Double Eagle
TTITLE10=Jackie Phelps - 9 Pound Hammer
TTITLE11=Jimmie Riddle - Jessie Polka
EXTD=YEAR: 2004
EXTT0=
EXTT1=
EXTT2=
EXTT3=
EXTT4=
EXTT5=
EXTT6=
EXTT7=
EXTT8=
EXTT9=
EXTT10=
EXTT11=
PLAYORDER=
